<?xml version="1.0" encoding="UTF-8"?>
<!DOCTYPE svg PUBLIC "-//W3C//DTD SVG 1.1//EN" "http://www.w3.org/Graphics/SVG/1.1/DTD/svg11.dtd">
<svg xmlns="http://www.w3.org/2000/svg" version="1.1" width="512px" height="512px" style="shape-rendering:geometricPrecision; text-rendering:geometricPrecision; image-rendering:optimizeQuality; fill-rule:evenodd; clip-rule:evenodd" xmlns:xlink="http://www.w3.org/1999/xlink">
<g><path style="opacity:0.125" fill="#e8c100" d="M 242.5,18.5 C 330.116,16.2302 399.949,49.8969 452,119.5C 498.427,191.173 506.761,267.173 477,347.5C 442.224,425.929 382.724,473.763 298.5,491C 201.509,504.47 123.009,472.97 63,396.5C 13.3834,321.529 5.38336,242.196 39,158.5C 80.6892,74.055 148.523,27.3883 242.5,18.5 Z"/></g>
<g><path style="opacity:1" fill="#fee900" d="M 279.5,42.5 C 282.997,43.4025 286.663,44.0691 290.5,44.5C 295.572,46.2464 300.905,47.2464 306.5,47.5C 308.435,48.1495 310.435,48.4828 312.5,48.5C 314.617,50.6545 317.284,51.6545 320.5,51.5C 387.157,73.3187 433.323,116.985 459,182.5C 462.088,190.263 464.255,198.263 465.5,206.5C 465.374,211.222 466.374,215.555 468.5,219.5C 468.229,224.434 468.896,229.1 470.5,233.5C 476.458,311.857 449.458,376.024 389.5,426C 342.689,461.041 290.023,475.874 231.5,470.5C 227.817,468.75 223.817,468.083 219.5,468.5C 215.555,466.374 211.222,465.374 206.5,465.5C 137.802,447.973 88.6358,406.973 59,342.5C 55.6611,335.481 53.1611,328.148 51.5,320.5C 51.6545,317.284 50.6545,314.617 48.5,312.5C 47.1673,306.168 45.834,299.835 44.5,293.5C 44.3104,288.63 43.6437,283.964 42.5,279.5C 40.9288,262.411 41.2622,245.411 43.5,228.5C 45.4508,221.402 46.7842,214.069 47.5,206.5C 49.6141,201.806 50.9474,196.806 51.5,191.5C 67.8813,140.902 98.5479,101.402 143.5,73C 157.995,64.2521 173.328,57.4187 189.5,52.5C 194.165,51.9223 198.499,50.5889 202.5,48.5C 203.708,47.7659 205.041,47.4326 206.5,47.5C 214.069,46.7842 221.402,45.4508 228.5,43.5C 245.411,41.2622 262.411,40.9288 279.5,42.5 Z"/></g>
<g><path style="opacity:0.475" fill="#f1cf00" d="M 279.5,42.5 C 284.434,42.2291 289.1,42.8958 293.5,44.5C 292.5,44.5 291.5,44.5 290.5,44.5C 286.663,44.0691 282.997,43.4025 279.5,42.5 Z"/></g>
<g><path style="opacity:0.948" fill="#fadf00" d="M 228.5,43.5 C 221.402,45.4508 214.069,46.7842 206.5,47.5C 213.463,44.7761 220.796,43.4428 228.5,43.5 Z"/></g>
<g><path style="opacity:1" fill="#fff000" d="M 247.5,46.5 C 328.908,46.2769 391.741,79.9436 436,147.5C 476.635,220.165 476.635,292.832 436,365.5C 384.284,442.595 312.118,475.095 219.5,463C 148.08,448.233 96.58,408.067 65,342.5C 37.3783,275.539 41.3783,210.539 77,147.5C 117.007,85.7354 173.84,52.0687 247.5,46.5 Z"/></g>
<g><path style="opacity:0.952" fill="#fbe000" d="M 290.5,44.5 C 291.5,44.5 292.5,44.5 293.5,44.5C 298.052,45.0566 302.385,46.0566 306.5,47.5C 300.905,47.2464 295.572,46.2464 290.5,44.5 Z"/></g>
<g><path style="opacity:0.937" fill="#fadf00" d="M 202.5,48.5 C 198.499,50.5889 194.165,51.9223 189.5,52.5C 193.403,50.1022 197.736,48.7689 202.5,48.5 Z"/></g>
<g><path style="opacity:0.937" fill="#f8dc00" d="M 312.5,48.5 C 315.542,48.7329 318.208,49.7329 320.5,51.5C 317.284,51.6545 314.617,50.6545 312.5,48.5 Z"/></g>
<g><path style="opacity:1" fill="#fff500" d="M 236.5,54.5 C 306.976,50.1384 365.476,74.1384 412,126.5C 456.677,183.217 469.344,246.551 450,316.5C 427.5,383 383,427.5 316.5,450C 246.551,469.344 183.217,456.677 126.5,412C 73.9714,365.46 50.138,306.96 55,236.5C 64.1093,165.059 99.9427,111.892 162.5,77C 185.952,65.1423 210.619,57.6423 236.5,54.5 Z"/></g>
<g><path style="opacity:0.939" fill="#f9dd00" d="M 51.5,191.5 C 50.9474,196.806 49.6141,201.806 47.5,206.5C 48.0526,201.194 49.3859,196.194 51.5,191.5 Z"/></g>
<g><path style="opacity:0.952" fill="#f9de00" d="M 47.5,206.5 C 46.7842,214.069 45.4508,221.402 43.5,228.5C 43.4428,220.796 44.7761,213.463 47.5,206.5 Z"/></g>
<g><path style="opacity:0.954" fill="#fade00" d="M 465.5,206.5 C 467.26,210.547 468.26,214.88 468.5,219.5C 466.374,215.555 465.374,211.222 465.5,206.5 Z"/></g>
<g><path style="opacity:0.831" fill="#f7d900" d="M 468.5,219.5 C 469.972,223.919 470.638,228.586 470.5,233.5C 468.896,229.1 468.229,224.434 468.5,219.5 Z"/></g>
<g><path style="opacity:0.475" fill="#f1cf00" d="M 42.5,279.5 C 43.6437,283.964 44.3104,288.63 44.5,293.5C 42.8958,289.1 42.2291,284.434 42.5,279.5 Z"/></g>
<g><path style="opacity:0.937" fill="#f8dc00" d="M 48.5,312.5 C 50.6545,314.617 51.6545,317.284 51.5,320.5C 49.7329,318.208 48.7329,315.542 48.5,312.5 Z"/></g>
<g><path style="opacity:0.954" fill="#fade00" d="M 206.5,465.5 C 211.222,465.374 215.555,466.374 219.5,468.5C 214.88,468.26 210.547,467.26 206.5,465.5 Z"/></g>
<g><path style="opacity:0.919" fill="#f8db00" d="M 219.5,468.5 C 223.817,468.083 227.817,468.75 231.5,470.5C 227.316,470.149 223.316,469.482 219.5,468.5 Z"/></g>
</svg>
